<mxfile host="app.diagrams.net" modified="2023-08-17T13:13:26.930Z" agent="Mozilla/5.0 (Windows NT 10.0; Win64; x64) AppleWebKit/537.36 (KHTML, like Gecko) Chrome/115.0.0.0 Safari/537.36" version="21.6.8" etag="fyEnjLwXWOWI2IK7dtod" type="github">
  <diagram name="PÃ¡gina-1" id="HVhqWfxK85lrMsl0KE3v">
    <mxGraphModel>
      <root>
        <mxCell id="0" />
        <mxCell id="1" parent="0" />
      </root>
    </mxGraphModel>
  </diagram>
</mxfile>
